<svg xmlns="http://www.w3.org/2000/svg" version="1.1" xmlns:xlink="http://www.w3.org/1999/xlink" xmlns:svgjs="http://svgjs.dev/svgjs" width="1500" height="200" viewBox="0 0 1500 200"><g transform="matrix(1,0,0,1,-0.9090909090909918,-0.32460514376823824)"><svg viewBox="0 0 396 53" data-background-color="#ffffff" preserveAspectRatio="xMidYMid meet" height="200" width="1500" xmlns="http://www.w3.org/2000/svg" xmlns:xlink="http://www.w3.org/1999/xlink"><g id="tight-bounds" transform="matrix(1,0,0,1,0.2400000000000091,0.08602036309858363)"><svg viewBox="0 0 395.52 52.82795927380282" height="52.82795927380282" width="395.52"><g><svg viewBox="0 0 529.0319943575452 70.6606003551251" height="52.82795927380282" width="395.52"><g><rect width="4.610887020090266" height="61.3550799031477" x="116.83072246810866" y="4.6527602259887" fill="#528265" opacity="1" stroke-width="0" stroke="transparent" fill-opacity="1" class="rect-qz-0" data-fill-palette-color="primary" rx="1%" id="qz-0" data-palette-color="#528265"></rect></g><g transform="matrix(1,0,0,1,133.51199435754518,9.765683551251009)"><svg viewBox="0 0 395.52 51.12923325262308" height="51.12923325262308" width="395.52"><g id="textblocktransform"><svg viewBox="0 0 395.52 51.12923325262308" height="51.12923325262308" width="395.52" id="textblock"><g><svg viewBox="0 0 395.52 51.12923325262308" height="51.12923325262308" width="395.52"><g transform="matrix(1,0,0,1,0,0)"><svg width="395.52" viewBox="3.8 -37.45 371.65 48.050000000000004" height="51.12923325262308" data-palette-color="#528265"><path d="M8.35 0L3.8 0 3.8-34.45 19.25-34.45 18.75-30.8 8.35-30.8 8.35-18.85 17.35-18.85 17.35-15.25 8.35-15.25 8.35 0ZM32.25-26.9Q36.95-26.9 39.52-23.43 42.1-19.95 42.1-13.2L42.1-13.2Q42.1-6.85 39.47-3.13 36.85 0.6 32.2 0.6L32.2 0.6Q27.55 0.6 24.95-3.05 22.35-6.7 22.35-13.15L22.35-13.15Q22.35-19.8 24.95-23.35 27.55-26.9 32.25-26.9L32.25-26.9ZM32.25-23.35Q29.6-23.35 28.3-20.98 27-18.6 27-13.15L27-13.15Q27-7.75 28.3-5.35 29.6-2.95 32.2-2.95L32.2-2.95Q34.85-2.95 36.15-5.35 37.45-7.75 37.45-13.2L37.45-13.2Q37.45-18.6 36.15-20.98 34.85-23.35 32.25-23.35L32.25-23.35ZM56.49-26.9Q61.2-26.9 63.77-23.43 66.34-19.95 66.34-13.2L66.34-13.2Q66.34-6.85 63.72-3.13 61.09 0.6 56.45 0.6L56.45 0.6Q51.8 0.6 49.2-3.05 46.59-6.7 46.59-13.15L46.59-13.15Q46.59-19.8 49.2-23.35 51.8-26.9 56.49-26.9L56.49-26.9ZM56.49-23.35Q53.84-23.35 52.55-20.98 51.24-18.6 51.24-13.15L51.24-13.15Q51.24-7.75 52.55-5.35 53.84-2.95 56.45-2.95L56.45-2.95Q59.09-2.95 60.39-5.35 61.7-7.75 61.7-13.2L61.7-13.2Q61.7-18.6 60.39-20.98 59.09-23.35 56.49-23.35L56.49-23.35ZM82.19-3.95L83.89-1.2Q81.64 0.6 78.84 0.6L78.84 0.6Q75.89 0.6 74.27-1.15 72.64-2.9 72.64-5.85L72.64-5.85 72.64-22.9 69.09-22.9 69.09-26.35 72.64-26.35 72.64-32.3 77.04-32.85 77.04-26.35 82.14-26.35 81.69-22.9 77.04-22.9 77.04-5.8Q77.04-3.05 79.39-3.05L79.39-3.05Q80.19-3.05 80.79-3.25 81.39-3.45 82.19-3.95L82.19-3.95ZM97.99-26.9Q101.79-26.9 103.92-23.45 106.04-20 106.04-13.2L106.04-13.2Q106.04-8.9 104.99-5.8 103.94-2.7 102.02-1.05 100.09 0.6 97.54 0.6L97.54 0.6Q95.84 0.6 94.34-0.28 92.84-1.15 91.74-2.75L91.74-2.75 91.44 0 87.54 0 87.54-36.9 91.94-37.35 91.94-23.15Q94.29-26.9 97.99-26.9L97.99-26.9ZM96.59-2.9Q101.39-2.9 101.39-13.2L101.39-13.2Q101.39-18.85 100.24-21.13 99.09-23.4 96.94-23.4L96.94-23.4Q94.14-23.4 91.94-19.35L91.94-19.35 91.94-6.3Q92.84-4.75 94.02-3.83 95.19-2.9 96.59-2.9L96.59-2.9ZM127.14-5.6Q127.14-4.2 127.54-3.53 127.94-2.85 128.84-2.45L128.84-2.45 127.89 0.6Q126.04 0.3 124.96-0.58 123.89-1.45 123.44-3.2L123.44-3.2Q121.29 0.6 117.14 0.6L117.14 0.6Q113.89 0.6 111.96-1.58 110.04-3.75 110.04-7.35L110.04-7.35Q110.04-11.55 112.64-13.78 115.24-16 120.19-16L120.19-16 122.79-16 122.79-18.4Q122.79-21 121.76-22.2 120.74-23.4 118.59-23.4L118.59-23.4Q116.04-23.4 112.64-22.05L112.64-22.05 111.54-25.15Q115.59-26.9 119.14-26.9L119.14-26.9Q123.19-26.9 125.16-24.73 127.14-22.55 127.14-18.6L127.14-18.6 127.14-5.6ZM118.04-2.7Q121.14-2.7 122.79-6.9L122.79-6.9 122.79-13.05 120.69-13.05Q117.54-13.05 116.06-11.7 114.59-10.35 114.59-7.55L114.59-7.55Q114.59-5.15 115.49-3.93 116.39-2.7 118.04-2.7L118.04-2.7ZM139.09 0.6Q136.89 0.6 135.56-0.8 134.24-2.2 134.24-4.6L134.24-4.6 134.24-36.95 138.64-37.45 138.64-4.7Q138.64-3.05 140.03-3.05L140.03-3.05Q140.69-3.05 141.28-3.3L141.28-3.3 142.28-0.3Q140.84 0.6 139.09 0.6L139.09 0.6ZM151.28 0.6Q149.08 0.6 147.76-0.8 146.43-2.2 146.43-4.6L146.43-4.6 146.43-36.95 150.83-37.45 150.83-4.7Q150.83-3.05 152.23-3.05L152.23-3.05Q152.88-3.05 153.48-3.3L153.48-3.3 154.48-0.3Q153.03 0.6 151.28 0.6L151.28 0.6ZM182.33-37.45L186.73-36.95 186.73 0 182.83 0 182.53-3.35Q180.18 0.6 176.53 0.6L176.53 0.6Q172.43 0.6 170.25-3.03 168.08-6.65 168.08-13.05L168.08-13.05Q168.08-17.2 169.18-20.35 170.28-23.5 172.23-25.2 174.18-26.9 176.68-26.9L176.68-26.9Q180.13-26.9 182.33-23.85L182.33-23.85 182.33-37.45ZM177.38-2.9Q180.23-2.9 182.33-6.65L182.33-6.65 182.33-20Q180.28-23.4 177.58-23.4L177.58-23.4Q175.28-23.4 174-20.9 172.73-18.4 172.73-13.15L172.73-13.15Q172.73-2.9 177.38-2.9L177.38-2.9ZM209.22-5.6Q209.22-4.2 209.63-3.53 210.03-2.85 210.93-2.45L210.93-2.45 209.97 0.6Q208.13 0.3 207.05-0.58 205.97-1.45 205.53-3.2L205.53-3.2Q203.38 0.6 199.22 0.6L199.22 0.6Q195.97 0.6 194.05-1.58 192.13-3.75 192.13-7.35L192.13-7.35Q192.13-11.55 194.72-13.78 197.32-16 202.28-16L202.28-16 204.88-16 204.88-18.4Q204.88-21 203.85-22.2 202.82-23.4 200.68-23.4L200.68-23.4Q198.13-23.4 194.72-22.05L194.72-22.05 193.63-25.15Q197.68-26.9 201.22-26.9L201.22-26.9Q205.28-26.9 207.25-24.73 209.22-22.55 209.22-18.6L209.22-18.6 209.22-5.6ZM200.13-2.7Q203.22-2.7 204.88-6.9L204.88-6.9 204.88-13.05 202.78-13.05Q199.63-13.05 198.15-11.7 196.68-10.35 196.68-7.55L196.68-7.55Q196.68-5.15 197.57-3.93 198.47-2.7 200.13-2.7L200.13-2.7ZM226.52-3.95L228.22-1.2Q225.97 0.6 223.17 0.6L223.17 0.6Q220.22 0.6 218.6-1.15 216.97-2.9 216.97-5.85L216.97-5.85 216.97-22.9 213.42-22.9 213.42-26.35 216.97-26.35 216.97-32.3 221.37-32.85 221.37-26.35 226.47-26.35 226.02-22.9 221.37-22.9 221.37-5.8Q221.37-3.05 223.72-3.05L223.72-3.05Q224.52-3.05 225.12-3.25 225.72-3.45 226.52-3.95L226.52-3.95ZM247.07-5.6Q247.07-4.2 247.47-3.53 247.87-2.85 248.77-2.45L248.77-2.45 247.82 0.6Q245.97 0.3 244.9-0.58 243.82-1.45 243.37-3.2L243.37-3.2Q241.22 0.6 237.07 0.6L237.07 0.6Q233.82 0.6 231.9-1.58 229.97-3.75 229.97-7.35L229.97-7.35Q229.97-11.55 232.57-13.78 235.17-16 240.12-16L240.12-16 242.72-16 242.72-18.4Q242.72-21 241.7-22.2 240.67-23.4 238.52-23.4L238.52-23.4Q235.97-23.4 232.57-22.05L232.57-22.05 231.47-25.15Q235.52-26.9 239.07-26.9L239.07-26.9Q243.12-26.9 245.1-24.73 247.07-22.55 247.07-18.6L247.07-18.6 247.07-5.6ZM237.97-2.7Q241.07-2.7 242.72-6.9L242.72-6.9 242.72-13.05 240.62-13.05Q237.47-13.05 236-11.7 234.52-10.35 234.52-7.55L234.52-7.55Q234.52-5.15 235.42-3.93 236.32-2.7 237.97-2.7L237.97-2.7ZM275.67-26.9Q279.52-26.9 281.52-23.38 283.52-19.85 283.52-13.2L283.52-13.2Q283.52-6.75 281.32-3.08 279.12 0.6 275.02 0.6L275.02 0.6Q271.62 0.6 269.42-2.3L269.42-2.3 269.42 10.05 265.02 10.6 265.02-26.35 268.87-26.35 269.12-22.85Q271.62-26.9 275.67-26.9L275.67-26.9ZM274.07-3Q276.42-3 277.64-5.43 278.87-7.85 278.87-13.2L278.87-13.2Q278.87-18.65 277.82-21.03 276.77-23.4 274.52-23.4L274.52-23.4Q271.67-23.4 269.42-19.55L269.42-19.55 269.42-6.05Q271.32-3 274.07-3L274.07-3ZM297.91-26.9Q302.61-26.9 305.19-23.43 307.76-19.95 307.76-13.2L307.76-13.2Q307.76-6.85 305.14-3.13 302.51 0.6 297.86 0.6L297.86 0.6Q293.21 0.6 290.61-3.05 288.01-6.7 288.01-13.15L288.01-13.15Q288.01-19.8 290.61-23.35 293.21-26.9 297.91-26.9L297.91-26.9ZM297.91-23.35Q295.26-23.35 293.96-20.98 292.66-18.6 292.66-13.15L292.66-13.15Q292.66-7.75 293.96-5.35 295.26-2.95 297.86-2.95L297.86-2.95Q300.51-2.95 301.81-5.35 303.11-7.75 303.11-13.2L303.11-13.2Q303.11-18.6 301.81-20.98 300.51-23.35 297.91-23.35L297.91-23.35ZM323.76-26.9Q324.86-26.9 325.76-26.6L325.76-26.6 325.01-22.35Q324.01-22.6 323.21-22.6L323.21-22.6Q321.26-22.6 320.01-20.85 318.76-19.1 318.06-15.5L318.06-15.5 318.06 0 313.66 0 313.66-26.35 317.46-26.35 317.81-21.45Q319.66-26.9 323.76-26.9L323.76-26.9ZM339.76-3.95L341.46-1.2Q339.21 0.6 336.41 0.6L336.41 0.6Q333.46 0.6 331.83-1.15 330.21-2.9 330.21-5.85L330.21-5.85 330.21-22.9 326.66-22.9 326.66-26.35 330.21-26.35 330.21-32.3 334.61-32.85 334.61-26.35 339.71-26.35 339.26-22.9 334.61-22.9 334.61-5.8Q334.61-3.05 336.96-3.05L336.96-3.05Q337.76-3.05 338.36-3.25 338.96-3.45 339.76-3.95L339.76-3.95ZM360.31-5.6Q360.31-4.2 360.71-3.53 361.11-2.85 362.01-2.45L362.01-2.45 361.06 0.6Q359.21 0.3 358.13-0.58 357.06-1.45 356.61-3.2L356.61-3.2Q354.46 0.6 350.31 0.6L350.31 0.6Q347.06 0.6 345.13-1.58 343.21-3.75 343.21-7.35L343.21-7.35Q343.21-11.55 345.81-13.78 348.41-16 353.36-16L353.36-16 355.96-16 355.96-18.4Q355.96-21 354.93-22.2 353.91-23.4 351.76-23.4L351.76-23.4Q349.21-23.4 345.81-22.05L345.81-22.05 344.71-25.15Q348.76-26.9 352.31-26.9L352.31-26.9Q356.36-26.9 358.33-24.73 360.31-22.55 360.31-18.6L360.31-18.6 360.31-5.6ZM351.21-2.7Q354.31-2.7 355.96-6.9L355.96-6.9 355.96-13.05 353.86-13.05Q350.71-13.05 349.23-11.7 347.76-10.35 347.76-7.55L347.76-7.55Q347.76-5.15 348.66-3.93 349.56-2.7 351.21-2.7L351.21-2.7ZM372.25 0.6Q370.05 0.6 368.73-0.8 367.4-2.2 367.4-4.6L367.4-4.6 367.4-36.95 371.8-37.45 371.8-4.7Q371.8-3.05 373.2-3.05L373.2-3.05Q373.85-3.05 374.45-3.3L374.45-3.3 375.45-0.3Q374 0.6 372.25 0.6L372.25 0.6Z" opacity="1" transform="matrix(1,0,0,1,0,0)" fill="#528265" class="wordmark-text-0" data-fill-palette-color="primary" id="text-0"></path></svg></g></svg></g></svg></g></svg></g><g><svg viewBox="0 0 104.76033759876242 70.6606003551251" height="70.6606003551251" width="104.76033759876242"><g><svg xmlns="http://www.w3.org/2000/svg" xmlns:xlink="http://www.w3.org/1999/xlink" version="1.1" x="0" y="0" viewBox="0.00010969881069719523 16.274310106941076 99.9998903011893 67.44968989305893" enable-background="new 0 0 100 100" xml:space="preserve" height="70.6606003551251" width="104.76033759876242" class="icon-icon-0" data-fill-palette-color="accent" id="icon-0"><g fill="#528265" data-fill-palette-color="accent"><g fill="#528265" data-fill-palette-color="accent"><path d="M76 28.502c2.701-3.016 2.447-7.648-0.578-10.36-3.016-2.699-7.652-2.443-10.35 0.575-2.7 3.018-2.443 7.651 0.574 10.351C68.67 31.774 73.298 31.519 76 28.502z" fill="#528265" data-fill-palette-color="accent"></path><path d="M1.869 32.618c-2.702 3.019-2.443 7.648 0.575 10.348 3.023 2.712 7.651 2.453 10.353-0.565 2.702-3.013 2.446-7.651-0.577-10.36C9.204 29.343 4.564 29.599 1.869 32.618z" fill="#528265" data-fill-palette-color="accent"></path><path d="M85.859 39.093c-0.113-0.053-0.23-0.099-0.351-0.137l-15.772-5.138-17.457-4.832c-0.119-0.039-0.241-0.069-0.365-0.092l-15.912-2.03-0.798 4.27 15.657 3.198 10.85 3.447L52.355 51.68l-15.248-5.007c-0.363-0.12-0.74-0.184-1.121-0.194L14.84 45.996l-0.177 7.754 20.572 0.467 14.279 4.69-7.686 4.78c-0.659 0.41-1.179 1.006-1.495 1.715l-6.751 15.171 7.085 3.151 6.268-14.082 13.441-8.359-0.024-0.038c0.625-0.429 1.181-0.981 1.629-1.647l11.026-16.38c0.373-0.556 0.616-1.157 0.791-1.768l9.914 2.87 14.461 6.292L100 46.672 85.859 39.093z" fill="#528265" data-fill-palette-color="accent"></path></g></g></svg></g></svg></g></svg></g><defs></defs></svg><rect width="395.52" height="52.82795927380282" fill="none" stroke="none" visibility="hidden"></rect></g></svg></g></svg>